{"title":"Stiletto.(2008).Rip.h263.1080p[)(]DD+ 5.1-(US).mkv","uid":11847931,"size":9497807945,"categoryP":"video","categoryS":"other","magnet":"?xt=urn:btih:236d6e9bb78a24d6713f53a1b46a521430b02783&amp;dn=Stiletto.%282008%29.Rip.h263.1080p%5B%29%28%5DDD%2B+5.1-%28US%29.mkv&amp;tr=udp%3A%2F%2Ftracker.openbittorrent.com%3A80&amp;tr=udp%3A%2F%2Fopen.demonii.com%3A1337&amp;tr=udp%3A%2F%2Ftracker.coppersurfer.tk%3A6969&amp;tr=udp%3A%2F%2Fexodus.desync.com%3A6969","seeders":0,"leechers":0,"uploader":"Tyr3ll","files":1,"time":1429994903,"description":"Stiletto (2008) mkv.h263 / 1080p / Dolby Digital plus 5.1 (cropped) as full screen resolution\n\nSee imdb right here :\nwww.imdb.com/title/tt1027747\n\nAction/Crime/Drama Â· \nR Â· \n99 min\n\nDirected by Nick Vallelonga. \nWith Stana Katic, Tom Berenger, Paul Sloan, Michael Biehn.\nHistory : \nThe seemingly random killings of an assassin puzzle her former lover...\n\nSource/Final purpose : BDrip reconverted as Master dubbing as new Rip\n\nLanguage : US English only + matching subtitle in same language\n\nQuality : Normal \n\nFinal size : 8,84 GB\n\nSee below for complete details :\n\nGeneral\nUnique ID                      : 252513384708900961514668330751774647270 (0xBDF84F13DEC3077A798289CB8D6763E6)\n\nComplete name                  : Stiletto.(2008).Rip.h263.1080p[)(]DD+ 5.1-(US).mkv\nFormat                         : Matroska\nFormat version                 : Version 4 / Version 2\nFile size                      : 8.85 GiB\nDuration                       : 1h 39mn\nOverall bit rate               : 12.8 Mbps\nEncoded date                   : UTC 2015-04-16 20:51:07\nWriting application            : Lavf56.30.100\nWriting library                : Lavf56.30.100\n\nVideo\nID                             : 1\nFormat                         : H.263\nCodec ID                       : V_MS/VFW/FOURCC / H263\nDuration                       : 1h 39mn\nBit rate                       : 11.7 Mbps\nWidth                          : 1 920 pixels\nHeight                         : 816 pixels\nDisplay aspect ratio           : 2.35:1\nFrame rate mode                : Constant\nFrame rate                     : 23.976 fps\nBit depth                      : 8 bits\nCompression mode               : Lossy\nBits/(Pixel*Frame)             : 0.312\nStream size                    : 8.14 GiB (92%)\nWriting library                : Lavc56.34.100 h263p\nLanguage                       : English\nDefault                        : Yes\nForced                         : No\n\nAudio\nID                             : 2\nFormat                         : E-AC-3\nFormat/Info                    : Audio Coding 3\nFormat settings, Endianness    : Big\nCodec ID                       : A_EAC3\nDuration                       : 1h 39mn\nBit rate mode                  : Constant\nBit rate                       : 768 Kbps\nChannel(s)                     : 6 channels\nChannel positions              : Front: L C R, Side: L R, LFE\nSampling rate                  : 48.0 KHz\nBit depth                      : 32 bits\nCompression mode               : Lossy\nStream size                    : 546 MiB (6%)\nWriting library                : Lavc56.34.100 eac3\nLanguage                       : English\nDefault                        : Yes\nForced                         : No\n\nText\nID                             : 3\nFormat                         : UTF-8\nCodec ID                       : S_TEXT/UTF8\nCodec ID/Info                  : UTF-8 Plain Text\nLanguage                       : English\nDefault                        : No\nForced                         : No\n\nMenu\n00:00:00.000                   : :00:00:00.000\n00:07:16.227                   : :00:07:16.227\n00:15:12.453                   : :00:15:12.453\n00:22:20.381                   : :00:22:20.381\n00:32:45.213                   : :00:32:45.213\n00:43:29.690                   : :00:43:29.690\n00:48:19.188                   : :00:48:19.188\n00:55:30.661                   : :00:55:30.661\n01:07:13.655                   : :01:07:13.655\n01:17:36.360                   : :01:17:36.360\n01:25:21.742                   : :01:25:21.742\n01:33:05.371                   : :01:33:05.371\n\n\n\nEnjoy and seed as long as you can, please.\nTy\n\nbest regards","torrent":{"xt":"urn:btih:236d6e9bb78a24d6713f53a1b46a521430b02783","amp;dn":"Stiletto.%282008%29.Rip.h263.1080p%5B%29%28%5DDD%2B+5.1-%28US%29.mkv","amp;tr":["udp%3A%2F%2Ftracker.openbittorrent.com%3A80","udp%3A%2F%2Fopen.demonii.com%3A1337","udp%3A%2F%2Ftracker.coppersurfer.tk%3A6969","udp%3A%2F%2Fexodus.desync.com%3A6969"],"infoHash":"236d6e9bb78a24d6713f53a1b46a521430b02783","infoHashBuffer":{"type":"Buffer","data":[35,109,110,155,183,138,36,214,113,63,83,161,180,106,82,20,48,176,39,131]},"announce":[],"urlList":[]}}